<?xml version="1.0" encoding="UTF-8" standalone="no"?>
<!DOCTYPE svg PUBLIC "-//W3C//DTD SVG 1.1//EN"
 "http://www.w3.org/Graphics/SVG/1.1/DTD/svg11.dtd">
<!-- Generated by graphviz version 2.47.0 (20210316.0004)
 -->
<!-- Title: dbml Pages: 1 -->
<svg width="1168pt" height="2235pt"
 viewBox="0.00 0.00 1168.30 2234.91" xmlns="http://www.w3.org/2000/svg" xmlns:xlink="http://www.w3.org/1999/xlink">
<g id="graph0" class="graph" transform="scale(1 1) rotate(0) translate(4 2230.91)">
<title>dbml</title>
<!-- Usuaris -->
<g id="Usuaris" class="node">
<title>Usuaris</title>
<ellipse fill="none" stroke="black" stroke-width="0" cx="880.99" cy="-427.09" rx="279.11" ry="427.19"/>
<polygon fill="#1d71b8" stroke="transparent" points="685.99,-667.09 685.99,-727.09 1076.99,-727.09 1076.99,-667.09 685.99,-667.09"/>
<polygon fill="none" stroke="#29235c" points="685.99,-667.09 685.99,-727.09 1076.99,-727.09 1076.99,-667.09 685.99,-667.09"/>
<text text-anchor="start" x="765.03" y="-688.29" font-family="Helvetica,sans-Serif" font-weight="bold" font-size="32.00" fill="#ffffff"> &#160;&#160;&#160;&#160;&#160;&#160;Usuaris &#160;&#160;&#160;&#160;&#160;&#160;</text>
<polygon fill="#e7e2dd" stroke="transparent" points="685.99,-607.09 685.99,-667.09 1076.99,-667.09 1076.99,-607.09 685.99,-607.09"/>
<polygon fill="none" stroke="#29235c" points="685.99,-607.09 685.99,-667.09 1076.99,-667.09 1076.99,-607.09 685.99,-607.09"/>
<text text-anchor="start" x="696.99" y="-627.29" font-family="Helvetica,sans-Serif" font-size="32.00" fill="#29235c">id &#160;&#160;&#160;</text>
<text text-anchor="start" x="968.19" y="-628.29" font-family="Helvetica,sans-Serif" font-style="italic" font-size="32.00" fill="#29235c">integer</text>
<polygon fill="#e7e2dd" stroke="transparent" points="685.99,-547.09 685.99,-607.09 1076.99,-607.09 1076.99,-547.09 685.99,-547.09"/>
<polygon fill="none" stroke="#29235c" points="685.99,-547.09 685.99,-607.09 1076.99,-607.09 1076.99,-547.09 685.99,-547.09"/>
<text text-anchor="start" x="696.99" y="-567.29" font-family="Helvetica,sans-Serif" font-size="32.00" fill="#29235c">Nom &#160;&#160;&#160;</text>
<text text-anchor="start" x="959.32" y="-568.29" font-family="Helvetica,sans-Serif" font-style="italic" font-size="32.00" fill="#29235c">varchar</text>
<polygon fill="#e7e2dd" stroke="transparent" points="685.99,-487.09 685.99,-547.09 1076.99,-547.09 1076.99,-487.09 685.99,-487.09"/>
<polygon fill="none" stroke="#29235c" points="685.99,-487.09 685.99,-547.09 1076.99,-547.09 1076.99,-487.09 685.99,-487.09"/>
<text text-anchor="start" x="696.99" y="-507.29" font-family="Helvetica,sans-Serif" font-size="32.00" fill="#29235c">Cognom1 &#160;&#160;&#160;</text>
<text text-anchor="start" x="959.32" y="-508.29" font-family="Helvetica,sans-Serif" font-style="italic" font-size="32.00" fill="#29235c">varchar</text>
<polygon fill="#e7e2dd" stroke="transparent" points="685.99,-427.09 685.99,-487.09 1076.99,-487.09 1076.99,-427.09 685.99,-427.09"/>
<polygon fill="none" stroke="#29235c" points="685.99,-427.09 685.99,-487.09 1076.99,-487.09 1076.99,-427.09 685.99,-427.09"/>
<text text-anchor="start" x="696.99" y="-447.29" font-family="Helvetica,sans-Serif" font-size="32.00" fill="#29235c">Cognom2 &#160;&#160;&#160;</text>
<text text-anchor="start" x="959.32" y="-448.29" font-family="Helvetica,sans-Serif" font-style="italic" font-size="32.00" fill="#29235c">varchar</text>
<polygon fill="#e7e2dd" stroke="transparent" points="685.99,-367.09 685.99,-427.09 1076.99,-427.09 1076.99,-367.09 685.99,-367.09"/>
<polygon fill="none" stroke="#29235c" points="685.99,-367.09 685.99,-427.09 1076.99,-427.09 1076.99,-367.09 685.99,-367.09"/>
<text text-anchor="start" x="696.99" y="-387.29" font-family="Helvetica,sans-Serif" font-size="32.00" fill="#29235c">DNI &#160;&#160;&#160;</text>
<text text-anchor="start" x="959.32" y="-388.29" font-family="Helvetica,sans-Serif" font-style="italic" font-size="32.00" fill="#29235c">varchar</text>
<polygon fill="#e7e2dd" stroke="transparent" points="685.99,-307.09 685.99,-367.09 1076.99,-367.09 1076.99,-307.09 685.99,-307.09"/>
<polygon fill="none" stroke="#29235c" points="685.99,-307.09 685.99,-367.09 1076.99,-367.09 1076.99,-307.09 685.99,-307.09"/>
<text text-anchor="start" x="696.99" y="-327.29" font-family="Helvetica,sans-Serif" font-size="32.00" fill="#29235c">Genere &#160;&#160;&#160;</text>
<text text-anchor="start" x="959.32" y="-328.29" font-family="Helvetica,sans-Serif" font-style="italic" font-size="32.00" fill="#29235c">varchar</text>
<polygon fill="#e7e2dd" stroke="transparent" points="685.99,-247.09 685.99,-307.09 1076.99,-307.09 1076.99,-247.09 685.99,-247.09"/>
<polygon fill="none" stroke="#29235c" points="685.99,-247.09 685.99,-307.09 1076.99,-307.09 1076.99,-247.09 685.99,-247.09"/>
<text text-anchor="start" x="696.99" y="-267.29" font-family="Helvetica,sans-Serif" font-size="32.00" fill="#29235c">Email &#160;&#160;&#160;</text>
<text text-anchor="start" x="959.32" y="-268.29" font-family="Helvetica,sans-Serif" font-style="italic" font-size="32.00" fill="#29235c">varchar</text>
<polygon fill="#e7e2dd" stroke="transparent" points="685.99,-187.09 685.99,-247.09 1076.99,-247.09 1076.99,-187.09 685.99,-187.09"/>
<polygon fill="none" stroke="#29235c" points="685.99,-187.09 685.99,-247.09 1076.99,-247.09 1076.99,-187.09 685.99,-187.09"/>
<text text-anchor="start" x="696.99" y="-207.29" font-family="Helvetica,sans-Serif" font-size="32.00" fill="#29235c">Telefon &#160;&#160;&#160;</text>
<text text-anchor="start" x="959.32" y="-208.29" font-family="Helvetica,sans-Serif" font-style="italic" font-size="32.00" fill="#29235c">varchar</text>
<polygon fill="#e7e2dd" stroke="transparent" points="685.99,-127.09 685.99,-187.09 1076.99,-187.09 1076.99,-127.09 685.99,-127.09"/>
<polygon fill="none" stroke="#29235c" points="685.99,-127.09 685.99,-187.09 1076.99,-187.09 1076.99,-127.09 685.99,-127.09"/>
<text text-anchor="start" x="696.86" y="-147.29" font-family="Helvetica,sans-Serif" font-size="32.00" fill="#29235c">DataRegistre &#160;&#160;&#160;</text>
<text text-anchor="start" x="918.71" y="-148.29" font-family="Helvetica,sans-Serif" font-style="italic" font-size="32.00" fill="#29235c">timestamp</text>
<polygon fill="none" stroke="#29235c" stroke-width="2" points="684.49,-126.09 684.49,-728.09 1077.49,-728.09 1077.49,-126.09 684.49,-126.09"/>
</g>
<!-- Doctor -->
<g id="Doctor" class="node">
<title>Doctor</title>
<ellipse fill="none" stroke="black" stroke-width="0" cx="282.84" cy="-819.09" rx="234.1" ry="172.57"/>
<polygon fill="#1d71b8" stroke="transparent" points="119.84,-879.09 119.84,-939.09 446.84,-939.09 446.84,-879.09 119.84,-879.09"/>
<polygon fill="none" stroke="#29235c" points="119.84,-879.09 119.84,-939.09 446.84,-939.09 446.84,-879.09 119.84,-879.09"/>
<text text-anchor="start" x="173.98" y="-900.29" font-family="Helvetica,sans-Serif" font-weight="bold" font-size="32.00" fill="#ffffff"> &#160;&#160;&#160;&#160;&#160;&#160;Doctor &#160;&#160;&#160;&#160;&#160;&#160;</text>
<polygon fill="#e7e2dd" stroke="transparent" points="119.84,-819.09 119.84,-879.09 446.84,-879.09 446.84,-819.09 119.84,-819.09"/>
<polygon fill="none" stroke="#29235c" points="119.84,-819.09 119.84,-879.09 446.84,-879.09 446.84,-819.09 119.84,-819.09"/>
<text text-anchor="start" x="130.84" y="-839.29" font-family="Helvetica,sans-Serif" font-size="32.00" fill="#29235c">id &#160;&#160;&#160;</text>
<text text-anchor="start" x="338.04" y="-840.29" font-family="Helvetica,sans-Serif" font-style="italic" font-size="32.00" fill="#29235c">integer</text>
<polygon fill="#e7e2dd" stroke="transparent" points="119.84,-759.09 119.84,-819.09 446.84,-819.09 446.84,-759.09 119.84,-759.09"/>
<polygon fill="none" stroke="#29235c" points="119.84,-759.09 119.84,-819.09 446.84,-819.09 446.84,-759.09 119.84,-759.09"/>
<text text-anchor="start" x="130.84" y="-779.29" font-family="Helvetica,sans-Serif" font-size="32.00" fill="#29235c">Usuari_id &#160;&#160;&#160;</text>
<text text-anchor="start" x="329.17" y="-780.29" font-family="Helvetica,sans-Serif" font-style="italic" font-size="32.00" fill="#29235c">varchar</text>
<polygon fill="#e7e2dd" stroke="transparent" points="119.84,-699.09 119.84,-759.09 446.84,-759.09 446.84,-699.09 119.84,-699.09"/>
<polygon fill="none" stroke="#29235c" points="119.84,-699.09 119.84,-759.09 446.84,-759.09 446.84,-699.09 119.84,-699.09"/>
<text text-anchor="start" x="130.77" y="-719.29" font-family="Helvetica,sans-Serif" font-size="32.00" fill="#29235c">Especialitat &#160;&#160;&#160;</text>
<text text-anchor="start" x="329.51" y="-720.29" font-family="Helvetica,sans-Serif" font-style="italic" font-size="32.00" fill="#29235c">varchar</text>
<polygon fill="none" stroke="#29235c" stroke-width="2" points="118.34,-698.09 118.34,-940.09 447.34,-940.09 447.34,-698.09 118.34,-698.09"/>
</g>
<!-- Doctor&#45;&gt;Usuaris -->
<!-- Doctor&#45;&gt;Usuaris -->
<g id="edge2" class="edge">
<title>Doctor:e&#45;&gt;Usuaris:w</title>
<path fill="none" stroke="#29235c" stroke-width="3" d="M447.84,-789.09C569.49,-789.09 560.44,-645.58 674.68,-637.45"/>
<polygon fill="#29235c" stroke="#29235c" stroke-width="3" points="675.12,-640.94 684.99,-637.09 674.88,-633.94 675.12,-640.94"/>
<text text-anchor="middle" x="676.1" y="-646.69" font-family="Helvetica,sans-Serif" font-size="32.00" fill="#29235c">1</text>
<text text-anchor="middle" x="441.62" y="-798.69" font-family="Helvetica,sans-Serif" font-size="32.00" fill="#29235c">*</text>
</g>
<!-- Pacient -->
<g id="Pacient" class="node">
<title>Pacient</title>
<ellipse fill="none" stroke="black" stroke-width="0" cx="282.84" cy="-456.09" rx="227.88" ry="172.57"/>
<polygon fill="#1d71b8" stroke="transparent" points="123.84,-516.09 123.84,-576.09 441.84,-576.09 441.84,-516.09 123.84,-516.09"/>
<polygon fill="none" stroke="#29235c" points="123.84,-516.09 123.84,-576.09 441.84,-576.09 441.84,-516.09 123.84,-516.09"/>
<text text-anchor="start" x="167.24" y="-537.29" font-family="Helvetica,sans-Serif" font-weight="bold" font-size="32.00" fill="#ffffff"> &#160;&#160;&#160;&#160;&#160;&#160;Pacient &#160;&#160;&#160;&#160;&#160;&#160;</text>
<polygon fill="#e7e2dd" stroke="transparent" points="123.84,-456.09 123.84,-516.09 441.84,-516.09 441.84,-456.09 123.84,-456.09"/>
<polygon fill="none" stroke="#29235c" points="123.84,-456.09 123.84,-516.09 441.84,-516.09 441.84,-456.09 123.84,-456.09"/>
<text text-anchor="start" x="134.84" y="-476.29" font-family="Helvetica,sans-Serif" font-size="32.00" fill="#29235c">id &#160;&#160;&#160;</text>
<text text-anchor="start" x="333.04" y="-477.29" font-family="Helvetica,sans-Serif" font-style="italic" font-size="32.00" fill="#29235c">integer</text>
<polygon fill="#e7e2dd" stroke="transparent" points="123.84,-396.09 123.84,-456.09 441.84,-456.09 441.84,-396.09 123.84,-396.09"/>
<polygon fill="none" stroke="#29235c" points="123.84,-396.09 123.84,-456.09 441.84,-456.09 441.84,-396.09 123.84,-396.09"/>
<text text-anchor="start" x="134.84" y="-416.29" font-family="Helvetica,sans-Serif" font-size="32.00" fill="#29235c">Usuari_id &#160;&#160;&#160;</text>
<text text-anchor="start" x="324.17" y="-417.29" font-family="Helvetica,sans-Serif" font-style="italic" font-size="32.00" fill="#29235c">varchar</text>
<polygon fill="#e7e2dd" stroke="transparent" points="123.84,-336.09 123.84,-396.09 441.84,-396.09 441.84,-336.09 123.84,-336.09"/>
<polygon fill="none" stroke="#29235c" points="123.84,-336.09 123.84,-396.09 441.84,-396.09 441.84,-336.09 123.84,-336.09"/>
<text text-anchor="start" x="134.37" y="-356.29" font-family="Helvetica,sans-Serif" font-size="32.00" fill="#29235c">TotalGastat &#160;&#160;&#160;</text>
<text text-anchor="start" x="334.82" y="-357.29" font-family="Helvetica,sans-Serif" font-style="italic" font-size="32.00" fill="#29235c">double</text>
<polygon fill="none" stroke="#29235c" stroke-width="2" points="122.84,-335.09 122.84,-577.09 442.84,-577.09 442.84,-335.09 122.84,-335.09"/>
</g>
<!-- Pacient&#45;&gt;Usuaris -->
<!-- Pacient&#45;&gt;Usuaris -->
<g id="edge4" class="edge">
<title>Pacient:e&#45;&gt;Usuaris:w</title>
<path fill="none" stroke="#29235c" stroke-width="3" d="M442.84,-426.09C582.11,-426.09 544.25,-626.92 674.86,-636.72"/>
<polygon fill="#29235c" stroke="#29235c" stroke-width="3" points="674.87,-640.22 684.99,-637.09 675.13,-633.23 674.87,-640.22"/>
<text text-anchor="middle" x="693.89" y="-646.69" font-family="Helvetica,sans-Serif" font-size="32.00" fill="#29235c">1</text>
<text text-anchor="middle" x="436.62" y="-435.69" font-family="Helvetica,sans-Serif" font-size="32.00" fill="#29235c">*</text>
</g>
<!-- Factura -->
<g id="Factura" class="node">
<title>Factura</title>
<ellipse fill="none" stroke="black" stroke-width="0" cx="282.84" cy="-1309.09" rx="217.16" ry="299.63"/>
<polygon fill="#1d71b8" stroke="transparent" points="131.84,-1459.09 131.84,-1519.09 434.84,-1519.09 434.84,-1459.09 131.84,-1459.09"/>
<polygon fill="none" stroke="#29235c" points="131.84,-1459.09 131.84,-1519.09 434.84,-1519.09 434.84,-1459.09 131.84,-1459.09"/>
<text text-anchor="start" x="166.86" y="-1480.29" font-family="Helvetica,sans-Serif" font-weight="bold" font-size="32.00" fill="#ffffff"> &#160;&#160;&#160;&#160;&#160;&#160;Factura &#160;&#160;&#160;&#160;&#160;&#160;</text>
<polygon fill="#e7e2dd" stroke="transparent" points="131.84,-1399.09 131.84,-1459.09 434.84,-1459.09 434.84,-1399.09 131.84,-1399.09"/>
<polygon fill="none" stroke="#29235c" points="131.84,-1399.09 131.84,-1459.09 434.84,-1459.09 434.84,-1399.09 131.84,-1399.09"/>
<text text-anchor="start" x="142.84" y="-1419.29" font-family="Helvetica,sans-Serif" font-size="32.00" fill="#29235c">id &#160;&#160;&#160;</text>
<text text-anchor="start" x="326.04" y="-1420.29" font-family="Helvetica,sans-Serif" font-style="italic" font-size="32.00" fill="#29235c">integer</text>
<polygon fill="#e7e2dd" stroke="transparent" points="131.84,-1339.09 131.84,-1399.09 434.84,-1399.09 434.84,-1339.09 131.84,-1339.09"/>
<polygon fill="none" stroke="#29235c" points="131.84,-1339.09 131.84,-1399.09 434.84,-1399.09 434.84,-1339.09 131.84,-1339.09"/>
<text text-anchor="start" x="142.37" y="-1359.29" font-family="Helvetica,sans-Serif" font-size="32.00" fill="#29235c">Pacient_id &#160;&#160;&#160;</text>
<text text-anchor="start" x="326.44" y="-1360.29" font-family="Helvetica,sans-Serif" font-style="italic" font-size="32.00" fill="#29235c">integer</text>
<polygon fill="#e7e2dd" stroke="transparent" points="131.84,-1279.09 131.84,-1339.09 434.84,-1339.09 434.84,-1279.09 131.84,-1279.09"/>
<polygon fill="none" stroke="#29235c" points="131.84,-1279.09 131.84,-1339.09 434.84,-1339.09 434.84,-1279.09 131.84,-1279.09"/>
<text text-anchor="start" x="142.84" y="-1299.29" font-family="Helvetica,sans-Serif" font-size="32.00" fill="#29235c">Doctor_id &#160;&#160;&#160;</text>
<text text-anchor="start" x="326.04" y="-1300.29" font-family="Helvetica,sans-Serif" font-style="italic" font-size="32.00" fill="#29235c">integer</text>
<polygon fill="#e7e2dd" stroke="transparent" points="131.84,-1219.09 131.84,-1279.09 434.84,-1279.09 434.84,-1219.09 131.84,-1219.09"/>
<polygon fill="none" stroke="#29235c" points="131.84,-1219.09 131.84,-1279.09 434.84,-1279.09 434.84,-1219.09 131.84,-1219.09"/>
<text text-anchor="start" x="142.84" y="-1239.29" font-family="Helvetica,sans-Serif" font-size="32.00" fill="#29235c">Data &#160;&#160;&#160;</text>
<text text-anchor="start" x="276.28" y="-1240.29" font-family="Helvetica,sans-Serif" font-style="italic" font-size="32.00" fill="#29235c">timestamp</text>
<polygon fill="#e7e2dd" stroke="transparent" points="131.84,-1159.09 131.84,-1219.09 434.84,-1219.09 434.84,-1159.09 131.84,-1159.09"/>
<polygon fill="none" stroke="#29235c" points="131.84,-1159.09 131.84,-1219.09 434.84,-1219.09 434.84,-1159.09 131.84,-1159.09"/>
<text text-anchor="start" x="142.84" y="-1179.29" font-family="Helvetica,sans-Serif" font-size="32.00" fill="#29235c">Total &#160;&#160;&#160;</text>
<text text-anchor="start" x="327.8" y="-1180.29" font-family="Helvetica,sans-Serif" font-style="italic" font-size="32.00" fill="#29235c">double</text>
<polygon fill="#e7e2dd" stroke="transparent" points="131.84,-1099.09 131.84,-1159.09 434.84,-1159.09 434.84,-1099.09 131.84,-1099.09"/>
<polygon fill="none" stroke="#29235c" points="131.84,-1099.09 131.84,-1159.09 434.84,-1159.09 434.84,-1099.09 131.84,-1099.09"/>
<text text-anchor="start" x="142.84" y="-1119.29" font-family="Helvetica,sans-Serif" font-size="32.00" fill="#29235c">Estat &#160;&#160;&#160;</text>
<text text-anchor="start" x="310.01" y="-1120.29" font-family="Helvetica,sans-Serif" font-style="italic" font-size="32.00" fill="#29235c">boolean</text>
<polygon fill="none" stroke="#29235c" stroke-width="2" points="130.34,-1098.09 130.34,-1520.09 435.34,-1520.09 435.34,-1098.09 130.34,-1098.09"/>
</g>
<!-- Producte -->
<g id="Producte" class="node">
<title>Producte</title>
<ellipse fill="none" stroke="black" stroke-width="0" cx="282.84" cy="-1927.09" rx="282.69" ry="299.63"/>
<polygon fill="#1d71b8" stroke="transparent" points="84.84,-2077.09 84.84,-2137.09 480.84,-2137.09 480.84,-2077.09 84.84,-2077.09"/>
<polygon fill="none" stroke="#29235c" points="84.84,-2077.09 84.84,-2137.09 480.84,-2137.09 480.84,-2077.09 84.84,-2077.09"/>
<text text-anchor="start" x="156.57" y="-2098.29" font-family="Helvetica,sans-Serif" font-weight="bold" font-size="32.00" fill="#ffffff"> &#160;&#160;&#160;&#160;&#160;&#160;Producte &#160;&#160;&#160;&#160;&#160;&#160;</text>
<polygon fill="#e7e2dd" stroke="transparent" points="84.84,-2017.09 84.84,-2077.09 480.84,-2077.09 480.84,-2017.09 84.84,-2017.09"/>
<polygon fill="none" stroke="#29235c" points="84.84,-2017.09 84.84,-2077.09 480.84,-2077.09 480.84,-2017.09 84.84,-2017.09"/>
<text text-anchor="start" x="95.84" y="-2037.29" font-family="Helvetica,sans-Serif" font-size="32.00" fill="#29235c">id &#160;&#160;&#160;</text>
<text text-anchor="start" x="372.04" y="-2038.29" font-family="Helvetica,sans-Serif" font-style="italic" font-size="32.00" fill="#29235c">integer</text>
<polygon fill="#e7e2dd" stroke="transparent" points="84.84,-1957.09 84.84,-2017.09 480.84,-2017.09 480.84,-1957.09 84.84,-1957.09"/>
<polygon fill="none" stroke="#29235c" points="84.84,-1957.09 84.84,-2017.09 480.84,-2017.09 480.84,-1957.09 84.84,-1957.09"/>
<text text-anchor="start" x="95.84" y="-1977.29" font-family="Helvetica,sans-Serif" font-size="32.00" fill="#29235c">Nom &#160;&#160;&#160;</text>
<text text-anchor="start" x="363.17" y="-1978.29" font-family="Helvetica,sans-Serif" font-style="italic" font-size="32.00" fill="#29235c">varchar</text>
<polygon fill="#e7e2dd" stroke="transparent" points="84.84,-1897.09 84.84,-1957.09 480.84,-1957.09 480.84,-1897.09 84.84,-1897.09"/>
<polygon fill="none" stroke="#29235c" points="84.84,-1897.09 84.84,-1957.09 480.84,-1957.09 480.84,-1897.09 84.84,-1897.09"/>
<text text-anchor="start" x="95.84" y="-1917.29" font-family="Helvetica,sans-Serif" font-size="32.00" fill="#29235c">Descripcio &#160;&#160;&#160;</text>
<text text-anchor="start" x="363.17" y="-1918.29" font-family="Helvetica,sans-Serif" font-style="italic" font-size="32.00" fill="#29235c">varchar</text>
<polygon fill="#e7e2dd" stroke="transparent" points="84.84,-1837.09 84.84,-1897.09 480.84,-1897.09 480.84,-1837.09 84.84,-1837.09"/>
<polygon fill="none" stroke="#29235c" points="84.84,-1837.09 84.84,-1897.09 480.84,-1897.09 480.84,-1837.09 84.84,-1837.09"/>
<text text-anchor="start" x="95.84" y="-1857.29" font-family="Helvetica,sans-Serif" font-size="32.00" fill="#29235c">Preu_Unitari &#160;&#160;&#160;</text>
<text text-anchor="start" x="373.8" y="-1858.29" font-family="Helvetica,sans-Serif" font-style="italic" font-size="32.00" fill="#29235c">double</text>
<polygon fill="#e7e2dd" stroke="transparent" points="84.84,-1777.09 84.84,-1837.09 480.84,-1837.09 480.84,-1777.09 84.84,-1777.09"/>
<polygon fill="none" stroke="#29235c" points="84.84,-1777.09 84.84,-1837.09 480.84,-1837.09 480.84,-1777.09 84.84,-1777.09"/>
<text text-anchor="start" x="95.84" y="-1797.29" font-family="Helvetica,sans-Serif" font-size="32.00" fill="#29235c">Stock &#160;&#160;&#160;</text>
<text text-anchor="start" x="373.8" y="-1798.29" font-family="Helvetica,sans-Serif" font-style="italic" font-size="32.00" fill="#29235c">double</text>
<polygon fill="#e7e2dd" stroke="transparent" points="84.84,-1717.09 84.84,-1777.09 480.84,-1777.09 480.84,-1717.09 84.84,-1717.09"/>
<polygon fill="none" stroke="#29235c" points="84.84,-1717.09 84.84,-1777.09 480.84,-1777.09 480.84,-1717.09 84.84,-1717.09"/>
<text text-anchor="start" x="95.62" y="-1737.29" font-family="Helvetica,sans-Serif" font-size="32.00" fill="#29235c">Telf_Distribuidor &#160;&#160;&#160;</text>
<text text-anchor="start" x="363.51" y="-1738.29" font-family="Helvetica,sans-Serif" font-style="italic" font-size="32.00" fill="#29235c">varchar</text>
<polygon fill="none" stroke="#29235c" stroke-width="2" points="83.84,-1716.09 83.84,-2138.09 481.84,-2138.09 481.84,-1716.09 83.84,-1716.09"/>
</g>
</g>
</svg>
