<?xml version="1.0" encoding="UTF-8" standalone="no"?>
<!DOCTYPE svg PUBLIC "-//W3C//DTD SVG 1.1//EN"
 "http://www.w3.org/Graphics/SVG/1.1/DTD/svg11.dtd">
<!-- Generated by graphviz version 2.47.0 (20210316.0004)
 -->
<!-- Title: dbml Pages: 1 -->
<svg width="1168pt" height="2077pt"
 viewBox="0.00 0.00 1168.30 2077.05" xmlns="http://www.w3.org/2000/svg" xmlns:xlink="http://www.w3.org/1999/xlink">
<g id="graph0" class="graph" transform="scale(1 1) rotate(0) translate(4 2073.05)">
<title>dbml</title>
<!-- Usuaris -->
<g id="Usuaris" class="node">
<title>Usuaris</title>
<ellipse fill="none" stroke="black" stroke-width="0" cx="880.99" cy="-384.67" rx="279.11" ry="384.83"/>
<polygon fill="#1d71b8" stroke="transparent" points="685.99,-594.67 685.99,-654.67 1076.99,-654.67 1076.99,-594.67 685.99,-594.67"/>
<polygon fill="none" stroke="#29235c" points="685.99,-594.67 685.99,-654.67 1076.99,-654.67 1076.99,-594.67 685.99,-594.67"/>
<text text-anchor="start" x="765.03" y="-615.87" font-family="Helvetica,sans-Serif" font-weight="bold" font-size="32.00" fill="#ffffff"> &#160;&#160;&#160;&#160;&#160;&#160;Usuaris &#160;&#160;&#160;&#160;&#160;&#160;</text>
<polygon fill="#e7e2dd" stroke="transparent" points="685.99,-534.67 685.99,-594.67 1076.99,-594.67 1076.99,-534.67 685.99,-534.67"/>
<polygon fill="none" stroke="#29235c" points="685.99,-534.67 685.99,-594.67 1076.99,-594.67 1076.99,-534.67 685.99,-534.67"/>
<text text-anchor="start" x="696.99" y="-554.87" font-family="Helvetica,sans-Serif" font-size="32.00" fill="#29235c">id &#160;&#160;&#160;</text>
<text text-anchor="start" x="968.19" y="-555.87" font-family="Helvetica,sans-Serif" font-style="italic" font-size="32.00" fill="#29235c">integer</text>
<polygon fill="#e7e2dd" stroke="transparent" points="685.99,-474.67 685.99,-534.67 1076.99,-534.67 1076.99,-474.67 685.99,-474.67"/>
<polygon fill="none" stroke="#29235c" points="685.99,-474.67 685.99,-534.67 1076.99,-534.67 1076.99,-474.67 685.99,-474.67"/>
<text text-anchor="start" x="696.99" y="-494.87" font-family="Helvetica,sans-Serif" font-size="32.00" fill="#29235c">Nom &#160;&#160;&#160;</text>
<text text-anchor="start" x="959.32" y="-495.87" font-family="Helvetica,sans-Serif" font-style="italic" font-size="32.00" fill="#29235c">varchar</text>
<polygon fill="#e7e2dd" stroke="transparent" points="685.99,-414.67 685.99,-474.67 1076.99,-474.67 1076.99,-414.67 685.99,-414.67"/>
<polygon fill="none" stroke="#29235c" points="685.99,-414.67 685.99,-474.67 1076.99,-474.67 1076.99,-414.67 685.99,-414.67"/>
<text text-anchor="start" x="696.99" y="-434.87" font-family="Helvetica,sans-Serif" font-size="32.00" fill="#29235c">Cognom1 &#160;&#160;&#160;</text>
<text text-anchor="start" x="959.32" y="-435.87" font-family="Helvetica,sans-Serif" font-style="italic" font-size="32.00" fill="#29235c">varchar</text>
<polygon fill="#e7e2dd" stroke="transparent" points="685.99,-354.67 685.99,-414.67 1076.99,-414.67 1076.99,-354.67 685.99,-354.67"/>
<polygon fill="none" stroke="#29235c" points="685.99,-354.67 685.99,-414.67 1076.99,-414.67 1076.99,-354.67 685.99,-354.67"/>
<text text-anchor="start" x="696.99" y="-374.87" font-family="Helvetica,sans-Serif" font-size="32.00" fill="#29235c">Cognom2 &#160;&#160;&#160;</text>
<text text-anchor="start" x="959.32" y="-375.87" font-family="Helvetica,sans-Serif" font-style="italic" font-size="32.00" fill="#29235c">varchar</text>
<polygon fill="#e7e2dd" stroke="transparent" points="685.99,-294.67 685.99,-354.67 1076.99,-354.67 1076.99,-294.67 685.99,-294.67"/>
<polygon fill="none" stroke="#29235c" points="685.99,-294.67 685.99,-354.67 1076.99,-354.67 1076.99,-294.67 685.99,-294.67"/>
<text text-anchor="start" x="696.99" y="-314.87" font-family="Helvetica,sans-Serif" font-size="32.00" fill="#29235c">DNI &#160;&#160;&#160;</text>
<text text-anchor="start" x="959.32" y="-315.87" font-family="Helvetica,sans-Serif" font-style="italic" font-size="32.00" fill="#29235c">varchar</text>
<polygon fill="#e7e2dd" stroke="transparent" points="685.99,-234.67 685.99,-294.67 1076.99,-294.67 1076.99,-234.67 685.99,-234.67"/>
<polygon fill="none" stroke="#29235c" points="685.99,-234.67 685.99,-294.67 1076.99,-294.67 1076.99,-234.67 685.99,-234.67"/>
<text text-anchor="start" x="696.99" y="-254.87" font-family="Helvetica,sans-Serif" font-size="32.00" fill="#29235c">Email &#160;&#160;&#160;</text>
<text text-anchor="start" x="959.32" y="-255.87" font-family="Helvetica,sans-Serif" font-style="italic" font-size="32.00" fill="#29235c">varchar</text>
<polygon fill="#e7e2dd" stroke="transparent" points="685.99,-174.67 685.99,-234.67 1076.99,-234.67 1076.99,-174.67 685.99,-174.67"/>
<polygon fill="none" stroke="#29235c" points="685.99,-174.67 685.99,-234.67 1076.99,-234.67 1076.99,-174.67 685.99,-174.67"/>
<text text-anchor="start" x="696.99" y="-194.87" font-family="Helvetica,sans-Serif" font-size="32.00" fill="#29235c">Telefon &#160;&#160;&#160;</text>
<text text-anchor="start" x="959.32" y="-195.87" font-family="Helvetica,sans-Serif" font-style="italic" font-size="32.00" fill="#29235c">varchar</text>
<polygon fill="#e7e2dd" stroke="transparent" points="685.99,-114.67 685.99,-174.67 1076.99,-174.67 1076.99,-114.67 685.99,-114.67"/>
<polygon fill="none" stroke="#29235c" points="685.99,-114.67 685.99,-174.67 1076.99,-174.67 1076.99,-114.67 685.99,-114.67"/>
<text text-anchor="start" x="696.86" y="-134.87" font-family="Helvetica,sans-Serif" font-size="32.00" fill="#29235c">DataRegistre &#160;&#160;&#160;</text>
<text text-anchor="start" x="918.71" y="-135.87" font-family="Helvetica,sans-Serif" font-style="italic" font-size="32.00" fill="#29235c">timestamp</text>
<polygon fill="none" stroke="#29235c" stroke-width="2" points="684.49,-113.67 684.49,-655.67 1077.49,-655.67 1077.49,-113.67 684.49,-113.67"/>
</g>
<!-- Doctor -->
<g id="Doctor" class="node">
<title>Doctor</title>
<ellipse fill="none" stroke="black" stroke-width="0" cx="282.84" cy="-746.67" rx="234.1" ry="172.57"/>
<polygon fill="#1d71b8" stroke="transparent" points="119.84,-806.67 119.84,-866.67 446.84,-866.67 446.84,-806.67 119.84,-806.67"/>
<polygon fill="none" stroke="#29235c" points="119.84,-806.67 119.84,-866.67 446.84,-866.67 446.84,-806.67 119.84,-806.67"/>
<text text-anchor="start" x="173.98" y="-827.87" font-family="Helvetica,sans-Serif" font-weight="bold" font-size="32.00" fill="#ffffff"> &#160;&#160;&#160;&#160;&#160;&#160;Doctor &#160;&#160;&#160;&#160;&#160;&#160;</text>
<polygon fill="#e7e2dd" stroke="transparent" points="119.84,-746.67 119.84,-806.67 446.84,-806.67 446.84,-746.67 119.84,-746.67"/>
<polygon fill="none" stroke="#29235c" points="119.84,-746.67 119.84,-806.67 446.84,-806.67 446.84,-746.67 119.84,-746.67"/>
<text text-anchor="start" x="130.84" y="-766.87" font-family="Helvetica,sans-Serif" font-size="32.00" fill="#29235c">id &#160;&#160;&#160;</text>
<text text-anchor="start" x="338.04" y="-767.87" font-family="Helvetica,sans-Serif" font-style="italic" font-size="32.00" fill="#29235c">integer</text>
<polygon fill="#e7e2dd" stroke="transparent" points="119.84,-686.67 119.84,-746.67 446.84,-746.67 446.84,-686.67 119.84,-686.67"/>
<polygon fill="none" stroke="#29235c" points="119.84,-686.67 119.84,-746.67 446.84,-746.67 446.84,-686.67 119.84,-686.67"/>
<text text-anchor="start" x="130.84" y="-706.87" font-family="Helvetica,sans-Serif" font-size="32.00" fill="#29235c">Usuari_id &#160;&#160;&#160;</text>
<text text-anchor="start" x="329.17" y="-707.87" font-family="Helvetica,sans-Serif" font-style="italic" font-size="32.00" fill="#29235c">varchar</text>
<polygon fill="#e7e2dd" stroke="transparent" points="119.84,-626.67 119.84,-686.67 446.84,-686.67 446.84,-626.67 119.84,-626.67"/>
<polygon fill="none" stroke="#29235c" points="119.84,-626.67 119.84,-686.67 446.84,-686.67 446.84,-626.67 119.84,-626.67"/>
<text text-anchor="start" x="130.77" y="-646.87" font-family="Helvetica,sans-Serif" font-size="32.00" fill="#29235c">Especialitat &#160;&#160;&#160;</text>
<text text-anchor="start" x="329.51" y="-647.87" font-family="Helvetica,sans-Serif" font-style="italic" font-size="32.00" fill="#29235c">varchar</text>
<polygon fill="none" stroke="#29235c" stroke-width="2" points="118.34,-625.67 118.34,-867.67 447.34,-867.67 447.34,-625.67 118.34,-625.67"/>
</g>
<!-- Doctor&#45;&gt;Usuaris -->
<!-- Doctor&#45;&gt;Usuaris -->
<g id="edge2" class="edge">
<title>Doctor:e&#45;&gt;Usuaris:w</title>
<path fill="none" stroke="#29235c" stroke-width="3" d="M447.84,-716.67C569.49,-716.67 560.44,-573.15 674.68,-565.02"/>
<polygon fill="#29235c" stroke="#29235c" stroke-width="3" points="675.12,-568.51 684.99,-564.67 674.88,-561.52 675.12,-568.51"/>
<text text-anchor="middle" x="676.1" y="-574.27" font-family="Helvetica,sans-Serif" font-size="32.00" fill="#29235c">1</text>
<text text-anchor="middle" x="441.62" y="-726.27" font-family="Helvetica,sans-Serif" font-size="32.00" fill="#29235c">*</text>
</g>
<!-- Pacient -->
<g id="Pacient" class="node">
<title>Pacient</title>
<ellipse fill="none" stroke="black" stroke-width="0" cx="282.84" cy="-383.67" rx="227.88" ry="172.57"/>
<polygon fill="#1d71b8" stroke="transparent" points="123.84,-443.67 123.84,-503.67 441.84,-503.67 441.84,-443.67 123.84,-443.67"/>
<polygon fill="none" stroke="#29235c" points="123.84,-443.67 123.84,-503.67 441.84,-503.67 441.84,-443.67 123.84,-443.67"/>
<text text-anchor="start" x="167.24" y="-464.87" font-family="Helvetica,sans-Serif" font-weight="bold" font-size="32.00" fill="#ffffff"> &#160;&#160;&#160;&#160;&#160;&#160;Pacient &#160;&#160;&#160;&#160;&#160;&#160;</text>
<polygon fill="#e7e2dd" stroke="transparent" points="123.84,-383.67 123.84,-443.67 441.84,-443.67 441.84,-383.67 123.84,-383.67"/>
<polygon fill="none" stroke="#29235c" points="123.84,-383.67 123.84,-443.67 441.84,-443.67 441.84,-383.67 123.84,-383.67"/>
<text text-anchor="start" x="134.84" y="-403.87" font-family="Helvetica,sans-Serif" font-size="32.00" fill="#29235c">id &#160;&#160;&#160;</text>
<text text-anchor="start" x="333.04" y="-404.87" font-family="Helvetica,sans-Serif" font-style="italic" font-size="32.00" fill="#29235c">integer</text>
<polygon fill="#e7e2dd" stroke="transparent" points="123.84,-323.67 123.84,-383.67 441.84,-383.67 441.84,-323.67 123.84,-323.67"/>
<polygon fill="none" stroke="#29235c" points="123.84,-323.67 123.84,-383.67 441.84,-383.67 441.84,-323.67 123.84,-323.67"/>
<text text-anchor="start" x="134.84" y="-343.87" font-family="Helvetica,sans-Serif" font-size="32.00" fill="#29235c">Usuari_id &#160;&#160;&#160;</text>
<text text-anchor="start" x="324.17" y="-344.87" font-family="Helvetica,sans-Serif" font-style="italic" font-size="32.00" fill="#29235c">varchar</text>
<polygon fill="#e7e2dd" stroke="transparent" points="123.84,-263.67 123.84,-323.67 441.84,-323.67 441.84,-263.67 123.84,-263.67"/>
<polygon fill="none" stroke="#29235c" points="123.84,-263.67 123.84,-323.67 441.84,-323.67 441.84,-263.67 123.84,-263.67"/>
<text text-anchor="start" x="134.37" y="-283.87" font-family="Helvetica,sans-Serif" font-size="32.00" fill="#29235c">TotalGastat &#160;&#160;&#160;</text>
<text text-anchor="start" x="334.82" y="-284.87" font-family="Helvetica,sans-Serif" font-style="italic" font-size="32.00" fill="#29235c">double</text>
<polygon fill="none" stroke="#29235c" stroke-width="2" points="122.84,-262.67 122.84,-504.67 442.84,-504.67 442.84,-262.67 122.84,-262.67"/>
</g>
<!-- Pacient&#45;&gt;Usuaris -->
<!-- Pacient&#45;&gt;Usuaris -->
<g id="edge4" class="edge">
<title>Pacient:e&#45;&gt;Usuaris:w</title>
<path fill="none" stroke="#29235c" stroke-width="3" d="M442.84,-353.67C582.11,-353.67 544.25,-554.49 674.86,-564.29"/>
<polygon fill="#29235c" stroke="#29235c" stroke-width="3" points="674.87,-567.8 684.99,-564.67 675.13,-560.8 674.87,-567.8"/>
<text text-anchor="middle" x="693.89" y="-574.27" font-family="Helvetica,sans-Serif" font-size="32.00" fill="#29235c">1</text>
<text text-anchor="middle" x="436.62" y="-363.27" font-family="Helvetica,sans-Serif" font-size="32.00" fill="#29235c">*</text>
</g>
<!-- Factura -->
<g id="Factura" class="node">
<title>Factura</title>
<ellipse fill="none" stroke="black" stroke-width="0" cx="282.84" cy="-1236.67" rx="217.16" ry="299.63"/>
<polygon fill="#1d71b8" stroke="transparent" points="131.84,-1386.67 131.84,-1446.67 434.84,-1446.67 434.84,-1386.67 131.84,-1386.67"/>
<polygon fill="none" stroke="#29235c" points="131.84,-1386.67 131.84,-1446.67 434.84,-1446.67 434.84,-1386.67 131.84,-1386.67"/>
<text text-anchor="start" x="166.86" y="-1407.87" font-family="Helvetica,sans-Serif" font-weight="bold" font-size="32.00" fill="#ffffff"> &#160;&#160;&#160;&#160;&#160;&#160;Factura &#160;&#160;&#160;&#160;&#160;&#160;</text>
<polygon fill="#e7e2dd" stroke="transparent" points="131.84,-1326.67 131.84,-1386.67 434.84,-1386.67 434.84,-1326.67 131.84,-1326.67"/>
<polygon fill="none" stroke="#29235c" points="131.84,-1326.67 131.84,-1386.67 434.84,-1386.67 434.84,-1326.67 131.84,-1326.67"/>
<text text-anchor="start" x="142.84" y="-1346.87" font-family="Helvetica,sans-Serif" font-size="32.00" fill="#29235c">id &#160;&#160;&#160;</text>
<text text-anchor="start" x="326.04" y="-1347.87" font-family="Helvetica,sans-Serif" font-style="italic" font-size="32.00" fill="#29235c">integer</text>
<polygon fill="#e7e2dd" stroke="transparent" points="131.84,-1266.67 131.84,-1326.67 434.84,-1326.67 434.84,-1266.67 131.84,-1266.67"/>
<polygon fill="none" stroke="#29235c" points="131.84,-1266.67 131.84,-1326.67 434.84,-1326.67 434.84,-1266.67 131.84,-1266.67"/>
<text text-anchor="start" x="142.37" y="-1286.87" font-family="Helvetica,sans-Serif" font-size="32.00" fill="#29235c">Pacient_id &#160;&#160;&#160;</text>
<text text-anchor="start" x="326.44" y="-1287.87" font-family="Helvetica,sans-Serif" font-style="italic" font-size="32.00" fill="#29235c">integer</text>
<polygon fill="#e7e2dd" stroke="transparent" points="131.84,-1206.67 131.84,-1266.67 434.84,-1266.67 434.84,-1206.67 131.84,-1206.67"/>
<polygon fill="none" stroke="#29235c" points="131.84,-1206.67 131.84,-1266.67 434.84,-1266.67 434.84,-1206.67 131.84,-1206.67"/>
<text text-anchor="start" x="142.84" y="-1226.87" font-family="Helvetica,sans-Serif" font-size="32.00" fill="#29235c">Doctor_id &#160;&#160;&#160;</text>
<text text-anchor="start" x="326.04" y="-1227.87" font-family="Helvetica,sans-Serif" font-style="italic" font-size="32.00" fill="#29235c">integer</text>
<polygon fill="#e7e2dd" stroke="transparent" points="131.84,-1146.67 131.84,-1206.67 434.84,-1206.67 434.84,-1146.67 131.84,-1146.67"/>
<polygon fill="none" stroke="#29235c" points="131.84,-1146.67 131.84,-1206.67 434.84,-1206.67 434.84,-1146.67 131.84,-1146.67"/>
<text text-anchor="start" x="142.84" y="-1166.87" font-family="Helvetica,sans-Serif" font-size="32.00" fill="#29235c">Data &#160;&#160;&#160;</text>
<text text-anchor="start" x="276.28" y="-1167.87" font-family="Helvetica,sans-Serif" font-style="italic" font-size="32.00" fill="#29235c">timestamp</text>
<polygon fill="#e7e2dd" stroke="transparent" points="131.84,-1086.67 131.84,-1146.67 434.84,-1146.67 434.84,-1086.67 131.84,-1086.67"/>
<polygon fill="none" stroke="#29235c" points="131.84,-1086.67 131.84,-1146.67 434.84,-1146.67 434.84,-1086.67 131.84,-1086.67"/>
<text text-anchor="start" x="142.84" y="-1106.87" font-family="Helvetica,sans-Serif" font-size="32.00" fill="#29235c">Total &#160;&#160;&#160;</text>
<text text-anchor="start" x="327.8" y="-1107.87" font-family="Helvetica,sans-Serif" font-style="italic" font-size="32.00" fill="#29235c">double</text>
<polygon fill="#e7e2dd" stroke="transparent" points="131.84,-1026.67 131.84,-1086.67 434.84,-1086.67 434.84,-1026.67 131.84,-1026.67"/>
<polygon fill="none" stroke="#29235c" points="131.84,-1026.67 131.84,-1086.67 434.84,-1086.67 434.84,-1026.67 131.84,-1026.67"/>
<text text-anchor="start" x="142.84" y="-1046.87" font-family="Helvetica,sans-Serif" font-size="32.00" fill="#29235c">Estat &#160;&#160;&#160;</text>
<text text-anchor="start" x="310.01" y="-1047.87" font-family="Helvetica,sans-Serif" font-style="italic" font-size="32.00" fill="#29235c">boolean</text>
<polygon fill="none" stroke="#29235c" stroke-width="2" points="130.34,-1025.67 130.34,-1447.67 435.34,-1447.67 435.34,-1025.67 130.34,-1025.67"/>
</g>
<!-- Producte -->
<g id="Producte" class="node">
<title>Producte</title>
<ellipse fill="none" stroke="black" stroke-width="0" cx="282.84" cy="-1811.67" rx="282.69" ry="257.27"/>
<polygon fill="#1d71b8" stroke="transparent" points="84.84,-1931.67 84.84,-1991.67 480.84,-1991.67 480.84,-1931.67 84.84,-1931.67"/>
<polygon fill="none" stroke="#29235c" points="84.84,-1931.67 84.84,-1991.67 480.84,-1991.67 480.84,-1931.67 84.84,-1931.67"/>
<text text-anchor="start" x="156.57" y="-1952.87" font-family="Helvetica,sans-Serif" font-weight="bold" font-size="32.00" fill="#ffffff"> &#160;&#160;&#160;&#160;&#160;&#160;Producte &#160;&#160;&#160;&#160;&#160;&#160;</text>
<polygon fill="#e7e2dd" stroke="transparent" points="84.84,-1871.67 84.84,-1931.67 480.84,-1931.67 480.84,-1871.67 84.84,-1871.67"/>
<polygon fill="none" stroke="#29235c" points="84.84,-1871.67 84.84,-1931.67 480.84,-1931.67 480.84,-1871.67 84.84,-1871.67"/>
<text text-anchor="start" x="95.84" y="-1891.87" font-family="Helvetica,sans-Serif" font-size="32.00" fill="#29235c">id &#160;&#160;&#160;</text>
<text text-anchor="start" x="372.04" y="-1892.87" font-family="Helvetica,sans-Serif" font-style="italic" font-size="32.00" fill="#29235c">integer</text>
<polygon fill="#e7e2dd" stroke="transparent" points="84.84,-1811.67 84.84,-1871.67 480.84,-1871.67 480.84,-1811.67 84.84,-1811.67"/>
<polygon fill="none" stroke="#29235c" points="84.84,-1811.67 84.84,-1871.67 480.84,-1871.67 480.84,-1811.67 84.84,-1811.67"/>
<text text-anchor="start" x="95.84" y="-1831.87" font-family="Helvetica,sans-Serif" font-size="32.00" fill="#29235c">Nom &#160;&#160;&#160;</text>
<text text-anchor="start" x="363.17" y="-1832.87" font-family="Helvetica,sans-Serif" font-style="italic" font-size="32.00" fill="#29235c">varchar</text>
<polygon fill="#e7e2dd" stroke="transparent" points="84.84,-1751.67 84.84,-1811.67 480.84,-1811.67 480.84,-1751.67 84.84,-1751.67"/>
<polygon fill="none" stroke="#29235c" points="84.84,-1751.67 84.84,-1811.67 480.84,-1811.67 480.84,-1751.67 84.84,-1751.67"/>
<text text-anchor="start" x="95.84" y="-1771.87" font-family="Helvetica,sans-Serif" font-size="32.00" fill="#29235c">Descripcio &#160;&#160;&#160;</text>
<text text-anchor="start" x="363.17" y="-1772.87" font-family="Helvetica,sans-Serif" font-style="italic" font-size="32.00" fill="#29235c">varchar</text>
<polygon fill="#e7e2dd" stroke="transparent" points="84.84,-1691.67 84.84,-1751.67 480.84,-1751.67 480.84,-1691.67 84.84,-1691.67"/>
<polygon fill="none" stroke="#29235c" points="84.84,-1691.67 84.84,-1751.67 480.84,-1751.67 480.84,-1691.67 84.84,-1691.67"/>
<text text-anchor="start" x="95.84" y="-1711.87" font-family="Helvetica,sans-Serif" font-size="32.00" fill="#29235c">Stock &#160;&#160;&#160;</text>
<text text-anchor="start" x="373.8" y="-1712.87" font-family="Helvetica,sans-Serif" font-style="italic" font-size="32.00" fill="#29235c">double</text>
<polygon fill="#e7e2dd" stroke="transparent" points="84.84,-1631.67 84.84,-1691.67 480.84,-1691.67 480.84,-1631.67 84.84,-1631.67"/>
<polygon fill="none" stroke="#29235c" points="84.84,-1631.67 84.84,-1691.67 480.84,-1691.67 480.84,-1631.67 84.84,-1631.67"/>
<text text-anchor="start" x="95.62" y="-1651.87" font-family="Helvetica,sans-Serif" font-size="32.00" fill="#29235c">Telf_Distribuidor &#160;&#160;&#160;</text>
<text text-anchor="start" x="363.51" y="-1652.87" font-family="Helvetica,sans-Serif" font-style="italic" font-size="32.00" fill="#29235c">varchar</text>
<polygon fill="none" stroke="#29235c" stroke-width="2" points="83.84,-1630.67 83.84,-1992.67 481.84,-1992.67 481.84,-1630.67 83.84,-1630.67"/>
</g>
</g>
</svg>
